<svg width="33" height="33" viewBox="0 0 33 33" fill="none" xmlns="http://www.w3.org/2000/svg">
<g id="wi-thermometer 2">
<path id="Vector" d="M10.901 21.516C10.901 20.581 11.121 19.712 11.55 18.898C11.979 18.084 12.584 17.413 13.365 16.874V5.962C13.365 5.082 13.662 4.334 14.267 3.729C14.872 3.124 15.62 2.805 16.5 2.805C17.391 2.805 18.139 3.113 18.744 3.718C19.349 4.334 19.657 5.071 19.657 5.951V16.863C20.438 17.402 21.032 18.084 21.461 18.887C21.89 19.69 22.099 20.57 22.099 21.505C22.099 22.517 21.846 23.463 21.351 24.321C20.856 25.179 20.174 25.861 19.316 26.356C18.458 26.851 17.523 27.104 16.5 27.104C15.488 27.104 14.553 26.851 13.695 26.356C12.837 25.861 12.155 25.179 11.649 24.321C11.143 23.463 10.901 22.528 10.901 21.516ZM12.837 21.516C12.837 22.539 13.2 23.419 13.915 24.145C14.63 24.871 15.499 25.234 16.511 25.234C17.534 25.234 18.414 24.871 19.151 24.134C19.888 23.397 20.262 22.528 20.262 21.527C20.262 20.845 20.086 20.207 19.734 19.624C19.382 19.041 18.898 18.59 18.282 18.271L17.974 18.117C17.864 18.073 17.809 17.963 17.809 17.798V5.962C17.809 5.61 17.688 5.313 17.435 5.071C17.182 4.84 16.874 4.719 16.5 4.719C16.148 4.719 15.84 4.84 15.587 5.071C15.334 5.302 15.213 5.599 15.213 5.962V17.776C15.213 17.941 15.158 18.051 15.059 18.095L14.762 18.249C14.157 18.568 13.684 19.019 13.343 19.602C13.002 20.185 12.837 20.812 12.837 21.516ZM13.695 21.516C13.695 22.297 13.959 22.968 14.498 23.518C15.037 24.068 15.675 24.343 16.434 24.343C17.193 24.343 17.842 24.068 18.403 23.518C18.964 22.968 19.239 22.297 19.239 21.527C19.239 20.834 18.997 20.218 18.524 19.69C18.051 19.162 17.468 18.843 16.786 18.755V10.659C16.786 10.593 16.753 10.516 16.676 10.45C16.599 10.373 16.522 10.34 16.434 10.34C16.335 10.34 16.258 10.373 16.203 10.428C16.148 10.494 16.115 10.56 16.115 10.659V18.733C15.444 18.832 14.872 19.14 14.399 19.668C13.926 20.207 13.695 20.812 13.695 21.516Z" fill="#01565B"/>
</g>
</svg>
