<svg width="33" height="33" viewBox="0 0 33 33" fill="none" xmlns="http://www.w3.org/2000/svg">
<g id="icons8-umidade-100 4">
<g id="Group">
<path id="Vector" d="M19.041 2.96999C17.556 5.24699 16.5 7.85399 16.5 9.207C16.5 10.329 17.721 12.21 18.81 12.771C20.592 13.662 22.44 13.068 23.661 11.253C24.585 9.9 24.618 8.77799 23.793 6.59999C23.166 4.98299 20.79 0.989994 20.46 0.989994C20.361 0.989994 19.734 1.88099 19.041 2.96999ZM21.714 5.34599C23.1 8.08499 23.298 9.207 22.638 10.494C21.219 13.233 17.358 11.517 17.952 8.44799C18.183 7.25999 20.13 3.29999 20.46 3.29999C20.592 3.29999 21.153 4.22399 21.714 5.34599Z" fill="#01565B"/>
<path id="Vector_2" d="M4.71922 8.415C4.32322 8.679 3.46522 9.009 2.77222 9.174C2.07922 9.306 1.48522 9.603 1.38622 9.834C1.15522 10.56 2.37622 10.692 4.09222 10.098C5.64322 9.57 5.87422 9.57 6.99622 10.032C8.54722 10.692 9.76822 10.692 11.5832 10.065C12.8702 9.603 13.1342 9.603 14.2562 10.065C15.4442 10.527 15.5102 10.527 15.5102 9.9C15.5102 9.504 15.2462 9.141 14.9492 9.009C14.6192 8.91 14.0912 8.58 13.7612 8.316C13.2332 7.854 13.0352 7.887 11.7482 8.514C9.96622 9.405 8.61322 9.438 6.93022 8.58C5.37922 7.788 5.57722 7.821 4.71922 8.415Z" fill="#01565B"/>
<path id="Vector_3" d="M26.3339 8.514C25.8059 8.811 25.4099 9.339 25.4099 9.636C25.4099 10.329 25.5419 10.362 26.4659 9.867C26.9939 9.57 27.5549 9.636 28.8749 10.065C30.6239 10.659 31.8449 10.56 31.6139 9.834C31.5149 9.603 30.9209 9.306 30.2279 9.174C29.5349 9.009 28.6769 8.679 28.2809 8.415C27.4229 7.821 27.4229 7.821 26.3339 8.514Z" fill="#01565B"/>
<path id="Vector_4" d="M4.71922 15.675C4.32322 15.939 3.46522 16.269 2.77222 16.434C2.07922 16.566 1.48522 16.863 1.38622 17.094C1.15522 17.82 2.37622 17.952 4.09222 17.358C5.64322 16.83 5.87422 16.83 6.99622 17.292C8.58022 17.952 9.86722 17.952 11.5502 17.292C12.7712 16.797 12.9692 16.797 14.1902 17.292C15.8732 17.952 17.1272 17.952 18.8102 17.292C20.0312 16.797 20.2292 16.797 21.4502 17.292C23.1332 17.952 24.4202 17.952 26.0042 17.292C27.1262 16.83 27.3572 16.83 28.9082 17.358C30.6242 17.952 31.8452 17.82 31.6142 17.094C31.5152 16.863 30.8882 16.566 30.1952 16.434C29.4692 16.269 28.6442 15.906 28.3142 15.609C27.7532 15.114 27.6212 15.114 26.2682 15.774C24.4862 16.665 22.9682 16.698 21.3842 15.84L20.1302 15.18L18.8102 15.873C17.2262 16.698 14.8832 16.599 13.8272 15.642C13.2002 15.081 13.1342 15.081 11.7482 15.774C9.96622 16.665 8.44822 16.698 6.83122 15.84C5.37922 15.048 5.57722 15.081 4.71922 15.675Z" fill="#01565B"/>
<path id="Vector_5" d="M11.121 21.45C9.63596 23.727 8.57996 26.334 8.57996 27.687C8.57996 28.809 9.80096 30.69 10.89 31.251C12.672 32.142 14.52 31.548 15.741 29.733C16.665 28.38 16.698 27.258 15.873 25.08C15.246 23.463 12.87 19.47 12.54 19.47C12.441 19.47 11.814 20.361 11.121 21.45ZM13.794 23.826C15.18 26.565 15.378 27.687 14.718 28.974C13.299 31.713 9.43796 29.997 10.032 26.928C10.263 25.74 12.21 21.78 12.54 21.78C12.672 21.78 13.233 22.704 13.794 23.826Z" fill="#01565B"/>
<path id="Vector_6" d="M4.71897 22.935C4.32297 23.199 3.46496 23.529 2.77196 23.694C2.07896 23.826 1.48496 24.123 1.38596 24.354C1.15496 25.08 2.34296 25.179 4.12497 24.618C5.67597 24.156 5.97297 24.123 7.02897 24.585C8.08497 25.014 8.21697 25.014 8.38197 24.519C8.64597 23.892 8.74497 24.024 7.02897 23.133C5.37897 22.308 5.57697 22.341 4.71897 22.935Z" fill="#01565B"/>
<path id="Vector_7" d="M18.8099 23.133C18.1829 23.463 17.3909 23.76 17.0939 23.76C16.4339 23.76 16.3679 24.024 16.7969 24.717C17.0609 25.113 17.3249 25.113 18.6119 24.618C20.0309 24.057 20.2619 24.057 21.4829 24.552C23.1329 25.212 24.4529 25.212 26.0039 24.552C27.1259 24.09 27.3569 24.09 28.9079 24.618C30.6239 25.212 31.8449 25.08 31.6139 24.354C31.5149 24.123 30.8879 23.826 30.1949 23.694C29.4689 23.529 28.6439 23.166 28.3139 22.869C27.7529 22.374 27.6209 22.374 26.2679 23.034C24.4859 23.925 22.9679 23.958 21.3509 23.1C20.6909 22.737 20.0969 22.44 20.0639 22.473C19.9979 22.473 19.4369 22.77 18.8099 23.133Z" fill="#01565B"/>
</g>
</g>
</svg>
