<svg width="33" height="33" viewBox="0 0 33 33" fill="none" xmlns="http://www.w3.org/2000/svg">
<g id="wi-strong-wind 2">
<path id="Vector" d="M3.41003 18.667C3.41003 18.931 3.50903 19.162 3.71803 19.349C3.89403 19.558 4.12503 19.657 4.41103 19.657H20.57C20.889 19.657 21.153 19.767 21.373 19.987C21.593 20.207 21.703 20.482 21.703 20.801C21.703 21.12 21.593 21.384 21.373 21.593C21.153 21.802 20.889 21.912 20.559 21.912C20.24 21.912 19.965 21.802 19.756 21.593C19.58 21.395 19.36 21.307 19.096 21.307C18.821 21.307 18.59 21.406 18.392 21.593C18.194 21.78 18.095 22.011 18.095 22.264C18.095 22.539 18.194 22.77 18.403 22.957C19.019 23.562 19.745 23.87 20.559 23.87C21.417 23.87 22.154 23.573 22.77 22.979C23.386 22.385 23.683 21.67 23.683 20.812C23.683 19.954 23.375 19.228 22.759 18.612C22.143 17.996 21.406 17.688 20.559 17.688H4.41103C4.13603 17.688 3.90503 17.787 3.70703 17.974C3.50903 18.161 3.41003 18.392 3.41003 18.667ZM3.41003 15.059C3.41003 15.312 3.50903 15.532 3.71803 15.73C3.90503 15.928 4.13603 16.016 4.41103 16.016H26.455C27.313 16.016 28.05 15.719 28.666 15.114C29.282 14.52 29.59 13.794 29.59 12.947C29.59 12.1 29.282 11.363 28.666 10.758C28.05 10.153 27.313 9.845 26.455 9.845C25.608 9.845 24.893 10.142 24.31 10.725C24.112 10.901 24.013 11.143 24.013 11.462C24.013 11.748 24.112 11.979 24.299 12.155C24.486 12.331 24.717 12.419 24.992 12.419C25.256 12.419 25.487 12.331 25.685 12.155C25.894 11.924 26.147 11.814 26.455 11.814C26.774 11.814 27.038 11.924 27.258 12.144C27.478 12.364 27.588 12.628 27.588 12.947C27.588 13.266 27.478 13.53 27.258 13.739C27.038 13.948 26.774 14.058 26.455 14.058H4.41103C4.13603 14.058 3.90503 14.157 3.70703 14.344C3.50903 14.553 3.41003 14.784 3.41003 15.059Z" fill="#01565B"/>
</g>
</svg>
